<svg width="63" height="62" viewBox="0 0 63 62" fill="none" xmlns="http://www.w3.org/2000/svg">
<g clip-path="url(#clip0_601_60)">
<path d="M56.3383 22.5126V22.5911C56.3383 22.7027 56.3383 22.8061 56.3383 22.9094C56.2848 23.576 56.0582 24.2171 55.6811 24.7694L44.2855 41.5797C43.8833 42.183 43.3173 42.659 42.6539 42.9518C41.9906 43.2447 41.2575 43.3423 40.5407 43.233C40.3664 43.2062 40.1939 43.1689 40.0241 43.1214C39.9119 43.0948 39.8025 43.0575 39.6975 43.0098L39.4082 42.8858C39.3372 42.8526 39.2682 42.8153 39.2015 42.7742C39.1233 42.7338 39.0486 42.6868 38.9783 42.6337H38.9494C38.9494 42.6337 38.9494 42.6337 38.9287 42.6089C38.7982 42.5257 38.6739 42.4331 38.5567 42.332C38.4282 42.2153 38.3068 42.091 38.193 41.96C38.0979 41.8484 38.007 41.7285 37.9202 41.6128C37.8313 41.4796 37.7499 41.3416 37.6763 41.1994V41.1994C37.6143 41.0713 37.5523 40.9308 37.5027 40.7861C37.5027 40.7613 37.482 40.7365 37.4738 40.7158C37.4655 40.6952 37.4531 40.6497 37.4407 40.6208C37.4407 40.596 37.4407 40.5505 37.4118 40.5257V40.4968L37.3084 40.0214C37.3084 39.9718 37.3085 39.9305 37.2795 39.885C37.2752 39.9069 37.2752 39.9293 37.2795 39.9511L35.4774 32.0689L29.0046 41.6128C28.51 42.3528 27.7665 42.8911 26.909 43.1297C26.795 43.164 26.679 43.1916 26.5618 43.2124L26.2187 43.2702H26.0451C25.9613 43.2783 25.8768 43.2783 25.793 43.2702H25.731C25.7008 43.2747 25.6702 43.2747 25.64 43.2702C25.5809 43.2742 25.5215 43.2742 25.4623 43.2702V43.2702C25.3714 43.2702 25.2763 43.2702 25.1854 43.2289C25.0457 43.2081 24.9076 43.1777 24.772 43.138L24.4744 43.0429C24.4744 43.0429 24.4744 43.0429 24.4455 43.0429C24.3422 43.0016 24.2306 42.952 24.1314 42.9024C24.0596 42.8734 23.9917 42.8359 23.9288 42.7908C23.8637 42.7616 23.8025 42.7241 23.747 42.6792C23.729 42.6743 23.7121 42.6658 23.6974 42.6544C23.2948 42.3812 22.9471 42.0349 22.6723 41.6334C22.6268 41.5673 22.5855 41.5053 22.5442 41.435C22.4653 41.3011 22.3935 41.1632 22.3292 41.0217C22.3003 40.9514 22.2672 40.8812 22.2424 40.8068C22.2176 40.7324 22.1887 40.658 22.168 40.5877V40.5174V40.4265L22.1267 40.2529V40.224L22.0978 40.071V40.038L20.1716 32.0441L13.7112 41.5797C13.3588 42.0978 12.8848 42.5216 12.3307 42.8141C11.7766 43.1066 11.1593 43.259 10.5327 43.2578C10.3951 43.2673 10.257 43.2673 10.1194 43.2578C9.99977 43.2483 9.88099 43.2304 9.76391 43.2041C9.65231 43.2041 9.53245 43.1545 9.42085 43.1256C9.30862 43.0946 9.19822 43.0573 9.09018 43.014C8.98685 42.9726 8.87525 42.923 8.77605 42.8734C8.67685 42.8238 8.64378 42.8032 8.57351 42.7618L8.48258 42.7122L8.39165 42.6544H8.36685H8.34618C8.25132 42.5908 8.16023 42.5218 8.07338 42.4477C7.9699 42.366 7.87187 42.2776 7.77991 42.1832L7.61045 42.0013C7.50711 41.8856 7.40792 41.7574 7.31698 41.6334L7.23432 41.3813C7.1532 41.248 7.08005 41.1099 7.01525 40.968C6.98632 40.8894 6.95325 40.8192 6.93258 40.753C6.88364 40.6177 6.84224 40.4797 6.80858 40.3397C6.78863 40.2734 6.77343 40.2057 6.76312 40.1372C6.73853 40.0239 6.72059 39.9094 6.70938 39.7941C6.69713 39.6249 6.69713 39.4549 6.70938 39.2857C6.72466 38.5389 6.95265 37.8119 7.36658 37.1901L18.7787 20.3509C19.1975 19.732 19.7894 19.2502 20.4804 18.9657C21.1714 18.6812 21.9309 18.6067 22.6641 18.7513H22.7054C22.8583 18.7885 23.0112 18.8215 23.16 18.8711C23.3382 18.9295 23.5122 19 23.6808 19.082C23.8249 19.1522 23.9631 19.2337 24.0942 19.3258L24.4827 19.6317C24.5653 19.7031 24.6453 19.7776 24.7224 19.8549L24.8258 19.9748C24.9801 20.1538 25.1184 20.3461 25.2391 20.5493C25.3176 20.6898 25.3962 20.8262 25.4582 20.9626C25.4871 21.0329 25.5119 21.1114 25.5408 21.1817C25.5976 21.3272 25.6446 21.4763 25.6814 21.6281C25.6814 21.7025 25.7144 21.781 25.731 21.8596C25.731 21.8596 25.731 21.8596 25.731 21.8844L27.5579 29.9154L34.039 20.3426C34.415 19.7898 34.9301 19.3458 35.5324 19.0556C36.1347 18.7653 36.8029 18.6389 37.4696 18.6893C37.497 18.685 37.5249 18.685 37.5523 18.6893C37.6661 18.6994 37.7793 18.716 37.8912 18.7389H37.9119H37.9367H37.9656C38.041 18.7506 38.1156 18.7672 38.1888 18.7885C38.263 18.8015 38.3362 18.8195 38.4079 18.8422H38.4286C38.5971 18.9017 38.7626 18.9693 38.9246 19.0448C38.9769 19.0697 39.028 19.0973 39.0775 19.1274H39.0982L39.2098 19.1936C39.2523 19.214 39.2925 19.239 39.3296 19.268V19.268C39.5979 19.4487 39.8423 19.6626 40.0571 19.9045C40.1604 20.0243 40.2596 20.1484 40.3506 20.2765C40.4415 20.4046 40.5159 20.541 40.5944 20.6898C40.6564 20.8304 40.7184 20.9709 40.7763 21.1032C40.8052 21.1858 40.859 21.3429 40.9086 21.5413L40.9623 21.7934L42.7934 29.8121L49.2703 20.2641C49.6463 19.7112 50.1614 19.2673 50.7638 18.977C51.3661 18.6868 52.0343 18.5604 52.701 18.6108C52.7284 18.6065 52.7563 18.6065 52.7836 18.6108C52.8961 18.6212 53.0078 18.6378 53.1185 18.6604H53.1433C53.161 18.6566 53.1793 18.6566 53.197 18.6604C53.2749 18.6729 53.3522 18.6895 53.4285 18.71C53.4997 18.724 53.57 18.7419 53.6392 18.7637H53.6599C53.7403 18.789 53.819 18.8194 53.8955 18.8546C53.9844 18.8868 54.0713 18.9241 54.1559 18.9662L54.3088 19.0489H54.3295C54.4081 19.0944 54.4824 19.1357 54.561 19.1894L54.9371 19.4829L55.0859 19.6152L55.1396 19.6648C55.2638 19.7964 55.3811 19.9343 55.491 20.0781C55.5522 20.1565 55.6075 20.2394 55.6563 20.3261C55.7634 20.4893 55.8547 20.6623 55.9291 20.8428C55.9663 20.9337 55.9994 21.0246 56.0324 21.1197C56.0815 21.2402 56.1203 21.3646 56.1482 21.4917C56.1677 21.5679 56.1829 21.6452 56.1936 21.7232C56.2101 21.7982 56.2225 21.8741 56.2309 21.9505C56.2284 21.9945 56.2284 22.0387 56.2309 22.0828C56.3301 22.339 56.3383 22.4299 56.3383 22.5126V22.5126Z" fill="#FF5555"/>
</g>
<defs>
<clipPath id="clip0_601_60">
<rect width="49.6381" height="24.6765" fill="white" transform="translate(6.7002 18.6)"/>
</clipPath>
</defs>
</svg>
